<svg width="24" height="24" viewBox="0 0 24 24" fill="none" xmlns="http://www.w3.org/2000/svg">
    <path fill-rule="evenodd" clip-rule="evenodd" d="M12 21.6004C14.5461 21.6004 16.9879 20.589 18.7882 18.7886C20.5886 16.9883 21.6 14.5465 21.6 12.0004C21.6 9.45431 20.5886 7.01252 18.7882 5.21217C16.9879 3.41182 14.5461 2.40039 12 2.40039C9.45395 2.40039 7.01215 3.41182 5.2118 5.21217C3.41145 7.01252 2.40002 9.45431 2.40002 12.0004C2.40002 14.5465 3.41145 16.9883 5.2118 18.7886C7.01215 20.589 9.45395 21.6004 12 21.6004ZM13.2 8.40039C13.2 8.08213 13.0736 7.77691 12.8486 7.55186C12.6235 7.32682 12.3183 7.20039 12 7.20039C11.6818 7.20039 11.3765 7.32682 11.1515 7.55186C10.9265 7.77691 10.8 8.08213 10.8 8.40039V10.8004H8.40002C8.08176 10.8004 7.77654 10.9268 7.5515 11.1519C7.32645 11.3769 7.20002 11.6821 7.20002 12.0004C7.20002 12.3187 7.32645 12.6239 7.5515 12.8489C7.77654 13.074 8.08176 13.2004 8.40002 13.2004H10.8V15.6004C10.8 15.9187 10.9265 16.2239 11.1515 16.4489C11.3765 16.674 11.6818 16.8004 12 16.8004C12.3183 16.8004 12.6235 16.674 12.8486 16.4489C13.0736 16.2239 13.2 15.9187 13.2 15.6004V13.2004H15.6C15.9183 13.2004 16.2235 13.074 16.4486 12.8489C16.6736 12.6239 16.8 12.3187 16.8 12.0004C16.8 11.6821 16.6736 11.3769 16.4486 11.1519C16.2235 10.9268 15.9183 10.8004 15.6 10.8004H13.2V8.40039Z" fill="#333333"/>
</svg>
