<svg width="8" height="8" viewBox="0 0 8 8" fill="none" xmlns="http://www.w3.org/2000/svg">
    <path d="M7.60945 6.43102C7.93524 6.75695 7.93524 7.28356 7.60945 7.60945C7.53215 7.68695 7.44029 7.74842 7.33916 7.79031C7.23803 7.83221 7.12962 7.85372 7.02016 7.85359C6.80688 7.85359 6.59356 7.77195 6.43102 7.60945L3.92691 5.1052L1.42281 7.60949C1.34552 7.68698 1.25369 7.74844 1.15258 7.79034C1.05147 7.83223 0.943078 7.85374 0.833633 7.85363C0.724175 7.85375 0.615772 7.83224 0.51465 7.79034C0.413527 7.74845 0.321678 7.68699 0.244375 7.60949C-0.081406 7.28355 -0.081406 6.75695 0.244375 6.43102L2.74863 3.92691L0.244336 1.42281C-0.0814453 1.09688 -0.0814453 0.570274 0.244336 0.244375C0.570273 -0.081406 1.09688 -0.081406 1.42281 0.244375L3.92691 2.74863L6.43102 0.244336C6.75695 -0.0814453 7.28356 -0.0814453 7.60945 0.244336C7.93524 0.570273 7.93524 1.09688 7.60945 1.42281L5.1052 3.92691L7.60945 6.43102Z" fill="#ED4747"/>
</svg>
