<svg width="20" height="20" viewBox="0 0 20 20" fill="none" xmlns="http://www.w3.org/2000/svg">
    <path d="M10 0C4.48578 0 0 4.48578 0 10C0 15.5142 4.48578 20 10 20C15.5142 20 20 15.5142 20 10C20 4.48578 15.5142 0 10 0Z" fill="#007AFF"/>
    <path d="M15.0684 7.88074L9.65165 13.2973C9.48915 13.4598 9.27583 13.5416 9.06251 13.5416C8.84918 13.5416 8.63586 13.4598 8.47336 13.2973L5.76508 10.589C5.43915 10.2632 5.43915 9.73652 5.76508 9.41074C6.09086 9.0848 6.61743 9.0848 6.94336 9.41074L9.06251 11.5299L13.8901 6.70246C14.2159 6.37652 14.7424 6.37652 15.0684 6.70246C15.3941 7.02824 15.3941 7.5548 15.0684 7.88074Z" fill="#FEFEFE"/>
</svg>
