<svg width="20" height="20" viewBox="0 0 20 20" fill="none" xmlns="http://www.w3.org/2000/svg">
    <path d="M14.9996 8.33301C15.6411 8.33297 16.269 8.51806 16.808 8.86607C17.3469 9.21407 17.774 9.71021 18.0379 10.2949C18.3019 10.8796 18.3915 11.5281 18.296 12.1625C18.2005 12.7969 17.924 13.3902 17.4996 13.8713V17.3647C17.4996 17.5209 17.4597 17.6746 17.3836 17.8111C17.3075 17.9476 17.1978 18.0624 17.0649 18.1446C16.932 18.2267 16.7802 18.2735 16.6241 18.2806C16.468 18.2876 16.3127 18.2546 16.1729 18.1847L14.9996 17.598L13.8263 18.1847C13.6865 18.2546 13.5312 18.2876 13.3751 18.2806C13.219 18.2735 13.0672 18.2267 12.9343 18.1446C12.8014 18.0624 12.6917 17.9476 12.6156 17.8111C12.5395 17.6746 12.4996 17.5209 12.4996 17.3647V13.8713C12.0752 13.3902 11.7987 12.7969 11.7032 12.1625C11.6077 11.5281 11.6973 10.8796 11.9613 10.2949C12.2252 9.71021 12.6523 9.21407 13.1912 8.86607C13.7301 8.51806 14.3581 8.33297 14.9996 8.33301ZM16.6663 3.33301C17.1083 3.33301 17.5322 3.5086 17.8448 3.82116C18.1573 4.13372 18.3329 4.55765 18.3329 4.99967V6.66634C18.3329 6.88735 18.2451 7.09932 18.0888 7.2556C17.9326 7.41188 17.7206 7.49967 17.4996 7.49967C17.2786 7.49967 17.0666 7.41188 16.9103 7.2556C16.7541 7.09932 16.6663 6.88735 16.6663 6.66634V4.99967H3.33293V14.9997H9.99959C10.2206 14.9997 10.4326 15.0875 10.5888 15.2438C10.7451 15.4 10.8329 15.612 10.8329 15.833C10.8329 16.054 10.7451 16.266 10.5888 16.4223C10.4326 16.5785 10.2206 16.6663 9.99959 16.6663H3.33293C2.8909 16.6663 2.46698 16.4907 2.15442 16.1782C1.84185 15.8656 1.66626 15.4417 1.66626 14.9997V4.99967C1.66626 4.55765 1.84185 4.13372 2.15442 3.82116C2.46698 3.5086 2.8909 3.33301 3.33293 3.33301H16.6663ZM15.8329 14.8947C15.2863 15.0358 14.7129 15.0358 14.1663 14.8947V16.1513L14.6271 15.9213C14.7428 15.8635 14.8703 15.8335 14.9996 15.8335C15.1289 15.8335 15.2564 15.8635 15.3721 15.9213L15.8329 16.1513V14.8947ZM14.9996 9.99967C14.5576 9.99967 14.1336 10.1753 13.8211 10.4878C13.5085 10.8004 13.3329 11.2243 13.3329 11.6663C13.3329 12.1084 13.5085 12.5323 13.8211 12.8449C14.1336 13.1574 14.5576 13.333 14.9996 13.333C15.4416 13.333 15.8655 13.1574 16.1781 12.8449C16.4907 12.5323 16.6663 12.1084 16.6663 11.6663C16.6663 11.2243 16.4907 10.8004 16.1781 10.4878C15.8655 10.1753 15.4416 9.99967 14.9996 9.99967ZM7.49959 10.833C7.71199 10.8332 7.91629 10.9146 8.07073 11.0604C8.22518 11.2062 8.31812 11.4055 8.33057 11.6175C8.34302 11.8295 8.27403 12.0383 8.13771 12.2012C8.00138 12.3641 7.80801 12.4688 7.59709 12.4938L7.49959 12.4997H5.83293C5.62053 12.4994 5.41623 12.4181 5.26179 12.2723C5.10734 12.1265 5.0144 11.9272 5.00195 11.7152C4.9895 11.5031 5.05849 11.2944 5.19481 11.1315C5.33114 10.9686 5.52451 10.8639 5.73543 10.8388L5.83293 10.833H7.49959ZM10.8329 7.49967C11.0539 7.49967 11.2659 7.58747 11.4222 7.74375C11.5785 7.90003 11.6663 8.11199 11.6663 8.33301C11.6663 8.55402 11.5785 8.76598 11.4222 8.92226C11.2659 9.07854 11.0539 9.16634 10.8329 9.16634H5.83293C5.61191 9.16634 5.39995 9.07854 5.24367 8.92226C5.08739 8.76598 4.99959 8.55402 4.99959 8.33301C4.99959 8.11199 5.08739 7.90003 5.24367 7.74375C5.39995 7.58747 5.61191 7.49967 5.83293 7.49967H10.8329Z" fill="#4E4E4E"/>
</svg>
