<svg width="20" height="20" viewBox="0 0 20 20" fill="none" xmlns="http://www.w3.org/2000/svg">
<path d="M9.99934 1.66699V1.04199V1.04199V1.66699ZM18.3324 10H18.9574V9.99996L18.3324 10ZM9.99934 18.334V18.959V18.959V18.334ZM3.14192 17.9678L3.35015 18.5571L3.35032 18.557L3.14192 17.9678ZM1.86555 16.6914L2.45485 16.8996L2.45492 16.8994L1.86555 16.6914ZM1.66634 10L1.04134 9.99996V10H1.66634ZM2.58452 13.802L3.14038 13.5162L2.58452 13.802ZM5.24478 17.224L5.03638 16.6348L5.24478 17.224ZM9.99934 1.66699V2.29199C14.2563 2.29199 17.7071 5.743 17.7074 10L18.3324 10L18.9574 9.99996C18.9571 5.0527 14.9468 1.04199 9.99934 1.04199V1.66699ZM18.3324 10H17.7074C17.7074 14.2573 14.2564 17.709 9.99934 17.709V18.334V18.959C14.947 18.959 18.9574 14.9475 18.9574 10H18.3324ZM9.99934 18.334V17.709C8.64498 17.709 7.37424 17.359 6.26911 16.7462L5.96602 17.2928L5.66293 17.8394C6.94816 18.5521 8.42682 18.959 9.99934 18.959V18.334ZM5.24478 17.224L5.03638 16.6348L2.93352 17.3785L3.14192 17.9678L3.35032 18.557L5.45318 17.8133L5.24478 17.224ZM3.14192 17.9678L2.93369 17.3785C2.63646 17.4835 2.34982 17.1969 2.45485 16.8996L1.86555 16.6914L1.27626 16.4832C0.82114 17.7712 2.06216 19.0122 3.35015 18.5571L3.14192 17.9678ZM1.86555 16.6914L2.45492 16.8994L3.22911 14.706L2.63974 14.498L2.05038 14.29L1.27619 16.4834L1.86555 16.6914ZM2.58452 13.802L3.14038 13.5162C2.59851 12.4621 2.29134 11.2677 2.29134 10H1.66634H1.04134C1.04134 11.4721 1.39851 12.8619 2.02866 14.0877L2.58452 13.802ZM1.66634 10L2.29134 10C2.29158 5.743 5.74235 2.29199 9.99934 2.29199V1.66699V1.04199C5.05192 1.04199 1.04162 5.0527 1.04134 9.99996L1.66634 10ZM2.63974 14.498L3.22911 14.706C3.37206 14.301 3.32283 13.8712 3.14038 13.5162L2.58452 13.802L2.02866 14.0877C2.06803 14.1643 2.06891 14.2375 2.05038 14.29L2.63974 14.498ZM5.96602 17.2928L6.26911 16.7462C5.90595 16.5449 5.45801 16.4857 5.03638 16.6348L5.24478 17.224L5.45318 17.8133C5.50778 17.7939 5.58432 17.7958 5.66293 17.8394L5.96602 17.2928Z" fill="#606060"/>
<circle cx="5.87451" cy="10.0417" r="1.04167" fill="#606060"/>
<circle cx="10.0413" cy="10.0417" r="1.04167" fill="#606060"/>
<circle cx="14.208" cy="10.0417" r="1.04167" fill="#606060"/>
</svg>
