<svg width="20" height="20" viewBox="0 0 20 20" fill="none" xmlns="http://www.w3.org/2000/svg">
<path d="M9.99966 1.04199C14.9471 1.04199 18.9585 5.0526 18.9586 10C18.9586 14.9476 14.9472 18.959 9.99966 18.959C5.05226 18.9588 1.04166 14.9474 1.04166 10C1.04183 5.05271 5.05237 1.04217 9.99966 1.04199ZM9.99966 6.04199C9.65464 6.04217 9.37466 6.32192 9.37466 6.66699V9.77734C9.37467 10.1255 9.54888 10.4513 9.83853 10.6445L12.153 12.1875C12.4401 12.3787 12.8287 12.3007 13.0202 12.0137C13.2115 11.7265 13.1335 11.3379 12.8463 11.1465L10.6247 9.66504V6.66699C10.6247 6.32181 10.3448 6.04199 9.99966 6.04199Z" fill="#FF9500"/>
</svg>
