<svg width="24" height="24" viewBox="0 0 24 24" fill="none" xmlns="http://www.w3.org/2000/svg">
<path d="M2.59999 22.5C2.49999 22.5 2.39999 22.4 2.29999 22.4C2.19999 22.3 2.09999 22.1 2.19999 21.9L4.19999 16.3C4.19999 16.2 4.29999 16.1 4.39999 16.1C4.39999 16 4.49999 15.9 4.59999 15.8L17.8 2.7C18.9 1.6 20.9 1.6 22 2.7C23.1 3.9 23.1 5.8 22 6.9L8.89999 20.1C8.79999 20.2 8.69999 20.3 8.59999 20.3C8.59999 20.4 8.49999 20.5 8.39999 20.5L2.79999 22.5H2.59999ZM4.99999 16.8L3.39999 21.4L7.99999 19.8L8.09999 19.7C8.19999 19.6 8.29999 19.5 8.39999 19.5L21.4 6.3C22.2 5.5 22.2 4.1 21.4 3.3C20.6 2.5 19.2 2.5 18.4 3.3L5.29999 16.5C5.19999 16.6 5.09999 16.6 4.99999 16.8Z" fill="#545454"/>
<path d="M2.59999 22.4996C2.49999 22.4996 2.39999 22.3996 2.29999 22.3996C2.19999 22.2996 2.09999 22.0996 2.19999 21.8996L4.19999 16.2996C4.19999 16.1996 4.29999 16.0996 4.39999 16.0996C4.39999 15.9996 4.49999 15.8996 4.59999 15.7996L15.6 4.79961C16.7 3.69961 18.7 3.69961 19.8 4.79961C21 5.99961 21 7.89961 19.9 9.09961L8.89999 20.0996C8.79999 20.1996 8.69999 20.2996 8.59999 20.2996C8.59999 20.3996 8.49999 20.4996 8.39999 20.4996L2.79999 22.4996H2.59999ZM4.99999 16.7996L3.39999 21.3996L7.99999 19.7996L8.09999 19.6996C8.19999 19.5996 8.29999 19.4996 8.39999 19.4996L19.4 8.49961C20.2 7.69961 20.2 6.39961 19.4 5.59961C18.6 4.79961 17.2 4.79961 16.5 5.59961L5.49999 16.5996C5.19999 16.5996 5.09999 16.5996 4.99999 16.7996Z" fill="#545454"/>
<path d="M2.59999 22.4998C2.49999 22.4998 2.39999 22.3998 2.29999 22.3998C2.19999 22.2998 2.09999 22.0998 2.19999 21.8998L4.19999 16.3998C4.19999 16.2998 4.29999 16.1998 4.39999 16.1998C5.49999 15.3998 7.29999 15.3998 8.29999 16.4998C9.39999 17.4998 9.49999 19.1998 8.59999 20.3998L8.39999 20.5998L2.89999 22.5998C2.69999 22.4998 2.69999 22.4998 2.59999 22.4998ZM4.89999 16.7998L3.29999 21.3998L7.89999 19.7998C8.49999 18.9998 8.39999 17.7998 7.69999 17.0998C6.99999 16.3998 5.79999 16.1998 4.89999 16.7998Z" fill="#545454"/>
<path d="M2.59999 22.4996C2.49999 22.4996 2.39999 22.3996 2.29999 22.3996C2.19999 22.2996 2.09999 22.0996 2.19999 21.8996L3.59999 17.9996C3.59999 17.7996 3.79999 17.6996 3.99999 17.6996C4.79999 17.6996 5.49999 17.9996 6.09999 18.5996C6.59999 19.0996 6.89999 19.7996 6.89999 20.5996C6.89999 20.7996 6.79999 20.9996 6.59999 20.9996L2.69999 22.3996C2.69999 22.4996 2.69999 22.4996 2.59999 22.4996ZM4.29999 18.5996L3.29999 21.3996L6.09999 20.3996C5.99999 19.8996 5.79999 19.4996 5.49999 19.1996C5.19999 18.8996 4.79999 18.6996 4.29999 18.5996ZM7.99999 17.0996C7.89999 17.0996 7.79999 17.0996 7.69999 16.9996C7.49999 16.8996 7.49999 16.5996 7.69999 16.3996L19.1 4.99961C19.2 4.79961 19.5 4.79961 19.7 4.99961C19.9 5.19961 19.9 5.39961 19.7 5.59961L8.29999 16.9996C8.19999 17.0996 8.09999 17.0996 7.99999 17.0996Z" fill="#545454"/>
</svg>
