<svg width="24" height="24" viewBox="0 0 24 24" fill="none" xmlns="http://www.w3.org/2000/svg">
<path d="M16.905 9.20006C16.7648 9.19807 16.6307 9.14263 16.53 9.04506L14.165 6.68006C14.1161 6.63114 14.0773 6.57307 14.0508 6.50915C14.0243 6.44524 14.0107 6.37674 14.0107 6.30756C14.0107 6.23838 14.0243 6.16987 14.0508 6.10596C14.0773 6.04205 14.1161 5.98397 14.165 5.93506C14.2139 5.88614 14.272 5.84734 14.3359 5.82086C14.3998 5.79439 14.4683 5.78076 14.5375 5.78076C14.6067 5.78076 14.6752 5.79439 14.7391 5.82086C14.803 5.84734 14.8611 5.88614 14.91 5.93506L17.275 8.30006C17.373 8.39926 17.428 8.5331 17.428 8.67256C17.428 8.81201 17.373 8.94585 17.275 9.04506C17.1764 9.14276 17.0437 9.19833 16.905 9.20006Z" fill="#333333"/>
<path d="M4.02499 20.5001C3.95596 20.5012 3.88744 20.488 3.82376 20.4613C3.76009 20.4346 3.70262 20.3951 3.65499 20.3451C3.59457 20.2894 3.54882 20.2196 3.52178 20.142C3.49475 20.0644 3.48726 19.9813 3.49999 19.9001L4.07499 15.9001C4.09005 15.7876 4.14295 15.6835 4.22499 15.6051L15.545 4.27007C16.038 3.77819 16.706 3.50195 17.4025 3.50195C18.0989 3.50195 18.7669 3.77819 19.26 4.27007L19.73 4.74007C19.9741 4.98388 20.1678 5.27342 20.3 5.59215C20.4322 5.91088 20.5002 6.25253 20.5002 6.59757C20.5002 6.94261 20.4322 7.28427 20.3 7.603C20.1678 7.92172 19.9741 8.21127 19.73 8.45507L8.41499 19.7701C8.33654 19.8521 8.2325 19.905 8.11999 19.9201L4.09999 20.5001H4.02499ZM5.07499 16.2051L4.62499 19.3551L7.77499 18.9051L19 7.71007C19.1482 7.56481 19.2657 7.39127 19.3456 7.19974C19.4255 7.00821 19.4661 6.80259 19.465 6.59507C19.4602 6.1831 19.2931 5.78964 19 5.50007L18.5 5.00007C18.2039 4.70513 17.8029 4.53953 17.385 4.53953C16.967 4.53953 16.5661 4.70513 16.27 5.00007L5.07499 16.2051Z" fill="#333333"/>
</svg>
