<svg width="20" height="20" viewBox="0 0 20 20" fill="none" xmlns="http://www.w3.org/2000/svg">
<path d="M2.08366 9.11534C2.08366 8.09519 2.55081 7.1312 3.35152 6.49906L7.93485 2.88064C9.14588 1.92457 10.8548 1.92457 12.0658 2.88064L16.6491 6.49906C17.4498 7.1312 17.917 8.09518 17.917 9.11534V14.5833C17.917 16.4243 16.4246 17.9167 14.5837 17.9167H13.3337C12.8734 17.9167 12.5003 17.5436 12.5003 17.0833V14.5833C12.5003 13.6629 11.7541 12.9167 10.8337 12.9167H9.167C8.24652 12.9167 7.50033 13.6629 7.50033 14.5833V17.0833C7.50033 17.5436 7.12723 17.9167 6.667 17.9167H5.417C3.57605 17.9167 2.08366 16.4243 2.08366 14.5833L2.08366 9.11534Z" stroke="#606060" stroke-width="1.25"/>
</svg>
