<svg width="19" height="24" viewBox="0 0 19 24" fill="none" xmlns="http://www.w3.org/2000/svg">
<path d="M17.7555 5.0603C17.0555 3.68043 16.0199 2.49866 14.7438 1.6236C13.4678 0.748543 11.9922 0.208274 10.4528 0.0524528C9.7561 -0.0174843 9.05412 -0.0174843 8.35738 0.0524528C6.81805 0.208521 5.34262 0.748889 4.0666 1.62392C2.79059 2.49895 1.75491 3.68059 1.0547 5.0603C0.173649 6.82082 -0.166754 8.80269 0.0763591 10.7563C0.319472 12.7099 1.13523 14.5479 2.42089 16.0388L8.69247 23.6636C8.77907 23.7688 8.88788 23.8535 9.01109 23.9117C9.1343 23.9698 9.26886 24 9.40511 24C9.54135 24 9.67591 23.9698 9.79912 23.9117C9.92233 23.8535 10.0311 23.7688 10.1177 23.6636L16.3884 16.0388C17.6742 14.548 18.4901 12.7101 18.7334 10.7564C18.9767 8.80283 18.6364 6.82091 17.7555 5.0603ZM9.40511 12.9224C8.67482 12.9224 7.96092 12.7058 7.35371 12.3001C6.74649 11.8944 6.27323 11.3177 5.99375 10.643C5.71428 9.96829 5.64116 9.22587 5.78363 8.50961C5.92611 7.79335 6.27778 7.13542 6.79417 6.61903C7.31057 6.10264 7.96849 5.75097 8.68475 5.60849C9.40101 5.46602 10.1434 5.53914 10.8181 5.81861C11.4928 6.09808 12.0695 6.57135 12.4752 7.17857C12.881 7.78578 13.0975 8.49967 13.0975 9.22997C13.0963 10.2089 12.7069 11.1474 12.0147 11.8396C11.3225 12.5318 10.384 12.9212 9.40511 12.9224Z" fill="#545454"/>
</svg>
