<svg width="32" height="32" viewBox="0 0 32 32" fill="none" xmlns="http://www.w3.org/2000/svg">
    <g clip-path="url(#clip0_26_8331)">
        <path
            d="M24.5196 4.59243C24.5335 4.5934 24.5475 4.59438 24.5616 4.59438C24.5857 4.59438 24.6097 4.59243 24.6332 4.58913C25.2634 4.60209 25.7676 5.11594 25.7684 5.74598C25.7684 5.88348 25.823 6.01535 25.9202 6.11258C26.0175 6.20981 26.1493 6.26443 26.2868 6.26443C26.4243 6.26443 26.5562 6.20981 26.6534 6.11258C26.7507 6.01535 26.8053 5.88348 26.8053 5.74598C26.804 4.71543 26.0866 3.82383 25.0801 3.60206V3.1039C25.0801 2.9664 25.0255 2.83453 24.9282 2.7373C24.831 2.64007 24.6991 2.58545 24.5616 2.58545C24.4241 2.58545 24.2923 2.64007 24.195 2.7373C24.0978 2.83453 24.0432 2.9664 24.0432 3.1039V3.62559C22.9789 3.91015 22.2904 4.93973 22.4339 6.03204C22.5775 7.12441 23.5085 7.9411 24.6102 7.9411C25.2499 7.9411 25.7684 8.45974 25.7684 9.09951C25.7684 9.73895 25.2499 10.2576 24.6102 10.2576C23.9705 10.2576 23.4521 9.73895 23.4521 9.09951C23.4521 8.96201 23.3975 8.83014 23.3002 8.73291C23.203 8.63568 23.0711 8.58106 22.9336 8.58106C22.7961 8.58106 22.6643 8.63568 22.567 8.73291C22.4698 8.83014 22.4152 8.96201 22.4152 9.09951C22.4165 10.0929 23.0837 10.9619 24.0432 11.2198V11.7879C24.0432 11.9254 24.0978 12.0573 24.195 12.1545C24.2923 12.2518 24.4241 12.3064 24.5616 12.3064C24.6991 12.3064 24.831 12.2518 24.9282 12.1545C25.0255 12.0573 25.0801 11.9254 25.0801 11.7879V11.2436C26.175 11.0039 26.9134 9.97763 26.7926 8.86329C26.6721 7.74895 25.7311 6.90439 24.6102 6.90465C23.9882 6.90491 23.4772 6.41381 23.4526 5.79232C23.4283 5.17083 23.8994 4.64104 24.5196 4.59269V4.59243Z"
            fill="#007AFF" />
        <path
            d="M24.6398 0.0507812C21.4504 0.0507812 18.7285 2.13197 17.7088 4.91863H4.84109C4.55607 4.91863 4.32465 5.17559 4.32264 5.46041L4.20015 23.6476H0.532124C0.24581 23.6476 0 23.855 0 24.1418V26.4497C0.00661023 28.6225 1.71788 30.4074 3.88837 30.5057V30.5171H19.8955V30.5019C20.0251 30.5067 20.0785 30.5171 20.1606 30.5171H20.1717C22.4181 30.5135 24.2375 28.6914 24.2375 26.4449V14.7757C24.3671 14.7828 24.5043 14.7866 24.6385 14.7866C28.6972 14.7866 32.0001 11.4775 32.0001 7.41847C32.0001 3.35979 28.6988 0.0508461 24.6398 0.0508461V0.0507812ZM4.08564 29.4802H4.0824C2.40522 29.478 1.04455 28.1218 1.03696 26.4445V24.6846H16.072V26.4371C16.0724 26.9729 16.1787 27.5033 16.3847 27.9978C16.5907 28.4924 16.8924 28.9414 17.2724 29.319C17.3268 29.3734 17.3944 29.4154 17.4514 29.4802H4.08564ZM23.2007 26.4444C23.2009 28.1187 21.8453 29.4769 20.1712 29.4802H20.1614C18.4805 29.4771 17.1173 28.1182 17.1089 26.4375V24.1418C17.1111 24.0763 17.0997 24.011 17.0756 23.95C17.0515 23.889 17.0151 23.8336 16.9687 23.7873C16.9223 23.741 16.8669 23.7047 16.8058 23.6806C16.7448 23.6566 16.6795 23.6454 16.614 23.6477H5.23705L5.35604 5.9556H17.4211C17.3292 6.43013 17.2816 6.91218 17.2791 7.39553C17.278 8.41733 17.4912 9.42801 17.9048 10.3624H13.008C12.7214 10.3624 12.4895 10.5946 12.4895 10.8808C12.4895 11.1672 12.7214 11.3993 13.008 11.3993H18.4674C18.9967 12.2316 19.6889 12.9483 20.5023 13.5063C21.3157 14.0642 22.2336 14.452 23.2007 14.6462V26.4444ZM24.6398 13.75C21.1474 13.75 18.3159 10.9188 18.3162 7.42605C18.3162 3.93338 21.1474 1.10213 24.6401 1.10213C28.1325 1.10213 30.9637 3.93364 30.9637 7.42605C30.9599 10.917 28.1311 13.7462 24.6398 13.75Z"
            fill="#007AFF" />
        <path
            d="M9.67987 13.813C8.76481 13.813 8.02051 14.5337 8.02051 15.4197C8.02051 16.3057 8.76474 17.0264 9.67987 17.0264C10.595 17.0264 11.3396 16.3057 11.3396 15.4197C11.3396 14.5337 10.595 13.813 9.67987 13.813ZM9.67987 15.9895C9.3364 15.9895 9.05741 15.7339 9.05741 15.4197C9.05741 15.1053 9.33659 14.8499 9.67987 14.8499C10.0231 14.8499 10.3027 15.1055 10.3027 15.4197C10.3027 15.7339 10.0231 15.9895 9.67987 15.9895ZM12.4893 15.4174C12.4893 15.7038 12.7212 15.9359 13.0078 15.9359H19.9198C20.0573 15.9359 20.1891 15.8813 20.2864 15.784C20.3836 15.6868 20.4382 15.5549 20.4382 15.4174C20.4382 15.2799 20.3836 15.1481 20.2864 15.0508C20.1891 14.9536 20.0573 14.899 19.9198 14.899H13.0078C12.7212 14.899 12.4893 15.1311 12.4893 15.4174ZM9.67987 9.30615C8.76481 9.30615 8.02051 10.0271 8.02051 10.9132C8.02051 11.7992 8.76474 12.5199 9.67987 12.5199C10.595 12.5199 11.3396 11.7992 11.3396 10.9132C11.3396 10.0271 10.595 9.30615 9.67987 9.30615ZM9.67987 11.483C9.3364 11.483 9.05741 11.2273 9.05741 10.9132C9.05741 10.599 9.33659 10.3431 9.67987 10.3431C10.0231 10.3431 10.3027 10.5987 10.3027 10.9132C10.3027 11.2273 10.0231 11.4833 9.67987 11.4833V11.483ZM9.67987 18.3193C8.76481 18.3193 8.02051 19.04 8.02051 19.926C8.02051 20.812 8.76474 21.5327 9.67987 21.5327C10.595 21.5327 11.3396 20.8121 11.3396 19.926C11.3396 19.0399 10.595 18.3193 9.67987 18.3193ZM9.67987 20.4958C9.3364 20.4958 9.05741 20.2404 9.05741 19.926C9.05741 19.6119 9.33659 19.3562 9.67987 19.3562C10.0231 19.3562 10.3027 19.6119 10.3027 19.926C10.3027 20.2402 10.0231 20.4958 9.67987 20.4958ZM19.9198 19.4354H13.0078C12.7212 19.4354 12.4893 19.6676 12.4893 19.9539C12.4893 20.2402 12.7212 20.4723 13.0078 20.4723H19.9198C20.0573 20.4723 20.1891 20.4177 20.2864 20.3205C20.3836 20.2232 20.4382 20.0914 20.4382 19.9539C20.4382 19.8164 20.3836 19.6845 20.2864 19.5873C20.1891 19.49 20.0573 19.4354 19.9198 19.4354Z"
            fill="#007AFF" />
    </g>
    <defs>
        <clipPath id="clip0_26_8331">
            <rect width="32" height="32" fill="white" />
        </clipPath>
    </defs>
</svg>
