<svg width="28" height="28" viewBox="0 0 28 28" fill="none" xmlns="http://www.w3.org/2000/svg">
    <path
        d="M22.1697 2.179C20.8997 0.706493 18.6039 0.0751953 15.6669 0.0751953H7.14292C6.85232 0.0751497 6.57124 0.180586 6.35024 0.372538C6.12924 0.56449 5.98282 0.830359 5.93734 1.12232L2.38812 24.0199C2.31757 24.4714 2.66128 24.8803 3.11118 24.8803H8.37357L9.69519 16.3532L9.65417 16.6202C9.74833 16.0175 10.2551 15.5729 10.8552 15.5729H13.3559C18.2685 15.5729 22.1151 13.5432 23.2387 7.67163C23.2721 7.49798 23.301 7.32896 23.326 7.16383C23.1841 7.08743 23.1841 7.08743 23.326 7.16383C23.6606 4.99365 23.3237 3.51641 22.1697 2.179Z"
        fill="#003087" />
    <path
        d="M23.2376 7.67186C22.114 13.5426 18.2674 15.5731 13.3548 15.5731H10.8534C10.2533 15.5731 9.74639 16.0177 9.65315 16.6205L8.00897 27.2229C7.94754 27.6181 8.24796 27.9761 8.64098 27.9761H13.077C13.3312 27.9761 13.5769 27.8838 13.7701 27.7159C13.9633 27.5479 14.0913 27.3154 14.131 27.0601L14.1742 26.8302L15.0102 21.4401L15.0641 21.1422C15.1038 20.8869 15.2318 20.6544 15.4249 20.4865C15.6181 20.3185 15.8638 20.2262 16.1179 20.2262H16.7818C21.0791 20.2262 24.4439 18.4503 25.4272 13.3142C25.8376 11.1679 25.6253 9.37588 24.5395 8.11717C24.2102 7.73593 23.8013 7.42107 23.3248 7.16406C23.2991 7.33002 23.2711 7.49821 23.2376 7.67186Z"
        fill="#0070E0" />
    <path
        d="M22.1494 6.687C21.9742 6.63497 21.7973 6.58889 21.6191 6.54886C21.4325 6.50713 21.2447 6.47083 21.0561 6.44001C20.3809 6.32885 19.6433 6.27637 18.8513 6.27637H12.1695C12.01 6.2761 11.8526 6.31252 11.7089 6.3829C11.5527 6.45873 11.417 6.57215 11.3136 6.71335C11.2102 6.85455 11.1422 7.01927 11.1155 7.19323L9.69531 16.3533L9.6543 16.6203C9.74772 16.0176 10.2545 15.573 10.8547 15.573H13.3561C18.2687 15.573 22.1152 13.5433 23.2389 7.67173C23.2723 7.49808 23.3004 7.3298 23.3262 7.16393C23.0417 7.01126 22.7336 6.87902 22.402 6.7672C22.3183 6.73898 22.2341 6.71224 22.1495 6.687"
        fill="#001C64" />
</svg>
