<svg width="30" height="30" viewBox="0 0 30 30" fill="none" xmlns="http://www.w3.org/2000/svg">
<path d="M21.998 0.015625C24.1557 -0.119229 26.2834 0.630302 27.8867 2.09863C29.3552 3.70197 30.1052 5.83018 29.9854 8.00293V21.998C30.1202 24.1708 29.3558 26.299 27.9023 27.9023C26.299 29.3708 24.1558 30.1192 21.998 29.9844H8.00293C5.83025 30.1192 3.70196 29.3707 2.09863 27.9023C0.630144 26.299 -0.119232 24.1708 0.015625 21.998V8.00293C-0.119236 5.83018 0.630147 3.70197 2.09863 2.09863C3.70199 0.630152 5.83016 -0.119235 8.00293 0.015625H21.998ZM21.6084 6.86426C20.6794 5.93522 19.181 5.93522 18.252 6.86426L17.248 7.88281C17.0982 8.03266 17.0982 8.28765 17.248 8.4375C17.2741 8.46334 19.6301 10.8056 19.6748 10.8652C19.8396 11.045 19.9452 11.2842 19.9453 11.5537C19.9453 12.0931 19.5105 12.5429 18.9561 12.543C18.7014 12.543 18.4617 12.4382 18.2969 12.2734L15.7939 9.78613C15.6741 9.66632 15.4646 9.66628 15.3447 9.78613L8.19727 16.9336C7.70277 17.4281 7.4183 18.0877 7.40332 18.792L7.3125 22.3428C7.3125 22.5376 7.37295 22.7177 7.50781 22.8525C7.64267 22.9874 7.82281 23.0625 8.01758 23.0625H11.5391C12.2582 23.0624 12.9473 22.7769 13.4717 22.2676L23.5566 12.1533C24.4704 11.2243 24.4706 9.72549 23.5566 8.81152L21.6084 6.86426Z" fill="#FF9500"/>
</svg>
