<svg width="28" height="28" viewBox="0 0 28 28" fill="none" xmlns="http://www.w3.org/2000/svg">
    <g clip-path="url(#clip0_26_11658)">
        <path d="M3.5 0C2.57174 0 1.6815 0.368749 1.02513 1.02513C0.368749 1.6815 0 2.57174 0 3.5L0 24.5C0 25.4283 0.368749 26.3185 1.02513 26.9749C1.6815 27.6313 2.57174 28 3.5 28H24.5C25.4283 28 26.3185 27.6313 26.9749 26.9749C27.6313 26.3185 28 25.4283 28 24.5V3.5C28 2.57174 27.6313 1.6815 26.9749 1.02513C26.3185 0.368749 25.4283 0 24.5 0L3.5 0ZM14.3955 9.42375C13.3735 9.42375 12.7557 9.71075 12.7557 10.4615C12.7557 11.2805 13.818 11.641 15.1357 12.089C17.2847 12.8153 20.1127 13.7743 20.125 17.3267C20.125 20.769 17.367 22.75 13.3525 22.75C11.5415 22.7424 9.75055 22.3698 8.08675 21.6545V17.0765C9.70725 17.962 11.753 18.6165 13.3542 18.6165C14.434 18.6165 15.2058 18.3277 15.2058 17.4422C15.2058 16.5357 14.0542 16.121 12.663 15.6205C10.5455 14.8575 7.875 13.895 7.875 10.6925C7.875 7.28875 10.479 5.25 14.3955 5.25C16.0322 5.23536 17.6565 5.53538 19.18 6.13375V10.654C17.7135 9.8665 15.862 9.42375 14.3955 9.42375Z" fill="#635BFF"/>
    </g>
    <defs>
        <clipPath id="clip0_26_11658">
            <rect width="28" height="28" fill="white"/>
        </clipPath>
    </defs>
</svg>
